<?xml version="1.0" encoding="UTF-8"?>
<svg width="160px" height="39px" viewBox="0 0 160 39" version="1.1" xmlns="http://www.w3.org/2000/svg" xmlns:xlink="http://www.w3.org/1999/xlink">
    <!-- Generator: Sketch 48.2 (47327) - http://www.bohemiancoding.com/sketch -->
    <title>logo</title>
    <desc>Created with Sketch.</desc>
    <defs>
        <polygon id="path-1" points="1.30905092e-20 0.000265855228 1.30905092e-20 38.5078125 31.2442614 38.5078125 31.2442614 0.000265855228"></polygon>
    </defs>
    <g id="Footer-mobile" stroke="none" stroke-width="1" fill="none" fill-rule="evenodd" transform="translate(-80.000000, -704.000000)">
        <g id="logo" transform="translate(80.000000, 704.000000)">
            <path d="M43.7530551,10.9371511 L43.7500898,10.2328187 C43.7382283,6.80999346 44.8986753,4.3611429 49.1905499,4.34770877 C52.4148924,4.33811296 53.8689107,5.64314304 54.2415585,8.51708796 L51.5025478,8.91819279 C51.396783,7.41165071 50.7493445,6.51444253 49.1371733,6.51924044 C46.9418132,6.5259575 46.3012939,7.91639029 46.3092015,10.2241825 L46.3111785,10.9294744 C46.3200746,13.4330211 46.9882706,14.6238611 49.2053767,14.6161844 C50.9381396,14.6113865 51.4590557,13.8859433 51.6547699,12.0464267 L54.375,12.3314222 C53.9015297,15.0518342 52.5769991,16.7579691 49.010651,16.769484 C45.0014747,16.7819586 43.7639281,14.3206335 43.7530551,10.9371511" id="Fill-1" fill="#FFFFFF"></path>
            <path d="M55.0030551,10.9376653 L55.0000898,10.2332791 C54.9882283,6.81019246 56.1486753,4.36115487 60.4405499,4.34771971 C63.6648924,4.33716351 65.1189107,5.64325292 65.4915585,8.51741733 L62.7525478,8.91759314 C62.646783,7.41189566 61.9993445,6.5136593 60.3871733,6.51941723 C58.1918132,6.5261348 57.5512939,7.91667378 57.5592015,10.2246422 L57.5611785,10.9290284 C57.5700746,13.4337259 58.2382706,14.6246568 60.4553767,14.6169796 C62.1881396,14.6121813 62.7090557,13.8866827 62.9047699,12.0470256 L65.625,12.3320429 C65.1515297,15.0526626 63.8269991,16.7579682 60.2596625,16.769484 C56.2514747,16.7819595 55.0139281,14.3214061 55.0030551,10.9376653" id="Fill-3" fill="#FFFFFF"></path>
            <polygon id="Fill-5" fill="#FFFFFF" points="66.875 4.35543938 69.3347547 4.34765625 69.375 16.7617481 66.9142871 16.7695313"></polygon>
            <polygon id="Fill-7" fill="#FFFFFF" points="75 6.23564945 82.4931534 6.2109375 82.5 8.18888221 77.2280908 8.20568634 77.2359155 10.5760569 81.9786776 10.5602412 81.9855243 12.5381859 77.241784 12.5540016 77.2584116 17.3837057 75.0361894 17.390625"></polygon>
            <path d="M88.2448895,11.1341012 C89.4824586,11.1301445 90.1089779,10.6820488 90.1051105,9.57615263 C90.1022099,8.54147692 89.5075967,8.06271684 88.2342541,8.06667353 L85.9524862,8.07458692 L85.9621547,11.1420146 L88.2448895,11.1341012 Z M88.0940608,12.988802 L85.9679558,12.9957262 L85.9814917,17.3827116 L83.7857735,17.390625 L83.75,6.22779959 L88.5078729,6.21098364 C90.4425414,6.2050486 92.2930939,6.76887762 92.3008287,9.53361816 C92.3066298,11.2814881 91.4035912,12.2281274 90.2888122,12.6603963 L92.5,17.3609498 L90.1466851,17.3688632 L88.0940608,12.988802 Z" id="Fill-9" fill="#FFFFFF"></path>
            <path d="M96.4921239,12.7434311 L99.0235906,12.7346019 L97.7366596,8.83014805 L96.4921239,12.7434311 Z M96.6739524,5.5976919 L98.8483569,5.58984375 L102.5,16.7381387 L100.343496,16.7450058 L99.6058185,14.5190747 L95.9212014,14.5308469 L95.2146141,16.7626641 L93.125,16.7695312 L96.6739524,5.5976919 Z" id="Fill-11" fill="#FFFFFF"></path>
            <polygon id="Fill-13" fill="#FFFFFF" points="103.75 6.23959323 106.440635 6.23070007 110.313488 13.1466125 110.289765 6.21884253 112.463426 6.2109375 112.5 17.3619693 110.289765 17.3698743 105.916742 9.58045618 105.942442 17.3837081 103.786574 17.390625"></polygon>
            <path d="M113.752057,11.5205116 L113.750085,10.8867285 C113.739238,7.80570321 114.762816,5.60162265 118.550452,5.58990402 C121.394383,5.58013848 122.678294,6.75688508 123.006667,9.34279794 L120.590706,9.70314607 C120.497026,8.34769024 119.92607,7.54008075 118.503119,7.54398696 C116.565419,7.55082283 116.00038,8.80178747 116.007283,10.8789161 L116.010241,11.5136757 C116.017144,13.7665839 116.607822,14.8388393 118.562285,14.83298 C120.091736,14.8280972 120.552248,14.1747831 120.723831,12.5185489 L123.125,12.7753824 C122.705905,15.2245778 121.538355,16.7597195 118.391689,16.769485 C114.853538,16.7812036 113.761918,14.5654044 113.752057,11.5205116" id="Fill-15" fill="#FFFFFF"></path>
            <polygon id="Fill-17" fill="#FFFFFF" points="124.375 5.6145557 131.838952 5.58984375 131.845772 7.56778846 126.594408 7.58459259 126.601228 9.74145184 131.325507 9.72563619 131.332327 11.6679957 126.607073 11.6828229 126.61779 14.8024598 131.86818 14.7846672 131.875 16.7448193 124.410074 16.7695312"></polygon>
            <polygon id="Fill-19" fill="#FFFFFF" points="44.375 21.1241179 46.834922 21.1171875 46.875 32.2889546 44.4139948 32.296875"></polygon>
            <polygon id="Fill-21" fill="#FFFFFF" points="48.125 21.1458432 50.8156349 21.1369501 54.6884885 28.0528625 54.664765 21.1250925 56.8384263 21.1171875 56.875 32.2682193 54.664765 32.2761243 50.291742 24.4867062 50.3174424 32.2899581 48.1615737 32.296875"></polygon>
            <polygon id="Fill-23" fill="#FFFFFF" points="61.394566 23.1131717 58.1318874 23.1240517 58.125 21.1458711 66.8681126 21.1171875 66.875 23.0953681 63.6290481 23.1062481 63.6595496 32.2899514 61.4240835 32.296875"></polygon>
            <polygon id="Fill-25" fill="#FFFFFF" points="68.125 21.1418995 75.5889517 21.1171875 75.5957716 23.0941437 70.3444076 23.1109479 70.3512276 25.2678071 75.0764809 25.2519915 75.0833009 27.194351 70.3580475 27.2101666 70.3677903 30.3288151 75.61818 30.3120109 75.625 32.272163 68.1610483 32.296875"></polygon>
            <path d="M81.9944193,26.0397977 C83.2321251,26.0358406 83.8596806,25.5886945 83.8558128,24.4827005 C83.851945,23.4479332 83.258233,22.9681415 81.9847497,22.9720985 L79.7017626,22.9800126 L79.7123992,26.0477117 L81.9944193,26.0397977 Z M81.8435739,27.8946625 L79.7182009,27.9015873 L79.7317383,32.2899502 L77.5357774,32.296875 L77.5,21.1340512 L82.2574318,21.1172337 C84.193281,21.1112982 86.0430711,21.6741878 86.0517737,24.439173 C86.0575754,26.1871976 85.15347,27.1349098 84.0385678,27.567217 L86.25,32.2681864 L83.897392,32.2761005 L81.8435739,27.8946625 Z" id="Fill-27" fill="#FFFFFF"></path>
            <polygon id="Fill-29" fill="#FFFFFF" points="87.5 21.1458432 90.1906349 21.1369501 94.0625 28.0528625 94.039765 21.1241044 96.2134263 21.1171875 96.25 32.2682193 94.039765 32.2751362 89.666742 24.4867062 89.6924424 32.28897 87.5365737 32.296875"></polygon>
            <path d="M100.867124,28.2704215 L103.398591,28.2615916 L102.11166,24.3577762 L100.867124,28.2704215 Z M101.04801,21.1250363 L103.222415,21.1171875 L106.875,32.2654797 L104.718496,32.2733285 L103.980819,30.0462209 L100.296201,30.0589753 L99.5896141,32.2909884 L97.5,32.296875 L101.04801,21.1250363 Z" id="Fill-31" fill="#FFFFFF"></path>
            <polygon id="Fill-33" fill="#FFFFFF" points="110.144566 23.1131717 106.880904 23.1240517 106.875 21.1458711 115.618113 21.1171875 115.625 23.094379 112.379048 23.105259 112.40955 32.2889623 110.1731 32.296875"></polygon>
            <polygon id="Fill-35" fill="#FFFFFF" points="116.875 21.1241179 119.333857 21.1171875 119.375 32.2889546 116.915061 32.296875"></polygon>
            <path d="M127.800145,27.0591141 L127.798223,26.3549569 C127.790535,24.0305546 127.076488,23.0656346 125.29281,23.0714945 C123.52547,23.0773543 122.81815,24.0657136 122.825838,26.3891393 L122.82776,27.0581374 C122.835448,29.3649602 123.704222,30.4001982 125.315875,30.3953151 C126.943865,30.3894552 127.807834,29.3649602 127.800145,27.0591141 M120.626994,27.048371 L120.625072,26.4145319 C120.615462,23.5266085 121.561119,21.1299349 125.286083,21.1172386 C129.046605,21.1045423 129.988418,23.4601971 129.998028,26.3295643 L129.99995,26.9995391 C130.0086,29.6589288 128.891879,32.2851127 125.322602,32.2968324 C121.787922,32.3085521 120.636605,29.9001588 120.626994,27.048371" id="Fill-37" fill="#FFFFFF"></path>
            <polygon id="Fill-39" fill="#FFFFFF" points="131.875 21.1448575 134.565635 21.1359636 138.438488 28.0524873 138.414765 21.124105 140.588426 21.1171875 140.625 32.2682167 138.414765 32.2761225 134.041742 24.4860158 134.067442 32.2899575 131.911574 32.296875"></polygon>
            <path d="M144.617124,28.2704215 L147.148591,28.2615916 L145.86166,24.3577762 L144.617124,28.2704215 Z M144.798952,21.1250363 L146.973357,21.1171875 L150.625,32.2654797 L148.468496,32.2733285 L147.730819,30.0462209 L144.046201,30.0589753 L143.339614,32.2900073 L141.25,32.296875 L144.798952,21.1250363 Z" id="Fill-41" fill="#FFFFFF"></path>
            <polygon id="Fill-43" fill="#FFFFFF" points="152.5 21.1251072 154.78747 21.1171875 154.818695 30.3258524 159.993956 30.310013 160 32.2731158 152.537268 32.296875"></polygon>
            <g id="Group-47">
                <mask id="mask-2" fill="white">
                    <use xlink:href="#path-1"></use>
                </mask>
                <g id="Clip-46"></g>
                <path d="M5.42101086e-20,19.3178292 C0.0347727273,29.9334704 8.72892045,38.5418919 19.38,38.5081976 C24.4529545,38.4918318 28.4440909,36.5751054 31.2442614,34.3830482 L27.1546023,29.8603056 C24.9185227,31.4747456 22.3028409,32.393157 19.3606818,32.4027839 C12.0873864,32.4268513 6.14801136,26.5467083 6.12482955,19.2976126 C6.10068182,12.0494796 12.0014205,6.12794074 19.2747159,6.10387336 C21.1572727,6.09809719 22.9461364,6.49665305 24.5698295,7.20134602 L26.976875,1.58401887 C24.6084659,0.564524531 21.9976136,-0.009241875 19.2553977,0.000385078125 C8.60335227,0.0350421094 -0.0347727273,8.7031507 5.42101086e-20,19.3178292" id="Fill-45" fill="#FFFFFF" mask="url(#mask-2)"></path>
            </g>
            <path d="M8.75005516,18.9774957 C8.76953834,24.6276117 13.4406303,29.2096183 19.1686847,29.1913518 C21.3624906,29.1836607 23.5796763,28.4068538 25,27.347397 C25,27.347397 21.12577,23.1124538 20.7867627,22.7500081 C20.4409363,22.9163293 19.7444127,23.088419 19.1492016,23.0903418 C16.8316775,23.0980329 14.9369384,21.2463869 14.9291452,18.9573064 C14.9213519,16.6691873 16.8180393,14.7425525 19.1355633,14.7348614 C19.7327228,14.7329386 20.3279338,14.8684952 20.8481347,15.0925002 L23.2698938,9.56544266 C22.0278412,9.05109655 20.6503805,8.68961219 19.1014678,8.69538056 C13.3734134,8.71364705 8.73154614,13.3283411 8.75005516,18.9774957" id="Fill-48" fill="#FFFFFF"></path>
            <path d="M27.1392597,15.0639852 C27.680463,16.1186789 28.1540159,17.5682717 28.1598985,19.1136569 C28.1657812,21.0637161 27.3480936,23.1838556 26.25,24.595327 L30.4609929,29.1914062 C32.7905201,26.6920071 34.3886384,23.0655813 34.3749123,19.09313 C34.3670687,16.7383969 33.7719412,14.3738891 32.7728721,12.421875 L27.1392597,15.0639852 Z" id="Fill-50" fill="#FFFFFF"></path>
            <path d="M25.6582092,13.0429688 L36.25,8.10830869 C34.6745151,5.84313992 32.5295895,3.77820706 30.3416874,2.484375 L25.625,13.0112006 L25.6582092,13.0429688 Z" id="Fill-52" fill="#FFFFFF"></path>
        </g>
    </g>
</svg>